
      <svg
        width="300"
        height="365"
        viewBox="0 0 300 365"
        fill="none"
        xmlns="http://www.w3.org/2000/svg"
      >
        <style>
          .header {
            font: 600 18px 'Segoe UI', Ubuntu, Sans-Serif;
            fill: #fff;
            animation: fadeInAnimation 0.8s ease-in-out forwards;
          }
          
    .lang-name { font: 400 11px 'Segoe UI', Ubuntu, Sans-Serif; fill: #9f9f9f }
  

          
    /* Animations */
    @keyframes scaleInAnimation {
      from {
        transform: translate(-5px, 5px) scale(0);
      }
      to {
        transform: translate(-5px, 5px) scale(1);
      }
    }
    @keyframes fadeInAnimation {
      from {
        opacity: 0;
      }
      to {
        opacity: 1;
      }
    }
  
          * { animation-duration: 0s !important; animation-delay: 0s !important; }
        </style>

        undefined

        <rect
          data-testid="card-bg"
          x="0.5"
          y="0.5"
          rx="4.5"
          height="99%"
          stroke="#E4E2E2"
          width="299"
          fill="#151515"
          stroke-opacity="1"
        />

        
      <g
        data-testid="card-title"
        transform="translate(25, 35)"
      >
        <g transform="translate(0, 0)">
      <text
        x="0"
        y="0"
        class="header"
        data-testid="header"
      >Most Used Languages</text>
    </g>
      </g>
    

        <g
          data-testid="main-card-body"
          transform="translate(0, 55)"
        >
          
    <svg data-testid="lang-items" x="25">
      <g transform="translate(0, 0)">
    <text data-testid="lang-name" x="2" y="15" class="lang-name">TypeScript</text>
    <text x="215" y="34" class="lang-name">73.21%</text>
    
    <svg width="205" x="0" y="25">
      <rect rx="5" ry="5" x="0" y="0" width="205" height="8" fill="#ddd"></rect>
      <rect
          height="8"
          fill="#3178c6"
          rx="5" ry="5" x="0" y="0" 
          data-testid="lang-progress"
          width="73.21%"
      >
      </rect>
    </svg>
  
  </g><g transform="translate(0, 40)">
    <text data-testid="lang-name" x="2" y="15" class="lang-name">HTML</text>
    <text x="215" y="34" class="lang-name">7.43%</text>
    
    <svg width="205" x="0" y="25">
      <rect rx="5" ry="5" x="0" y="0" width="205" height="8" fill="#ddd"></rect>
      <rect
          height="8"
          fill="#e34c26"
          rx="5" ry="5" x="0" y="0" 
          data-testid="lang-progress"
          width="7.43%"
      >
      </rect>
    </svg>
  
  </g><g transform="translate(0, 80)">
    <text data-testid="lang-name" x="2" y="15" class="lang-name">Solidity</text>
    <text x="215" y="34" class="lang-name">7.18%</text>
    
    <svg width="205" x="0" y="25">
      <rect rx="5" ry="5" x="0" y="0" width="205" height="8" fill="#ddd"></rect>
      <rect
          height="8"
          fill="#AA6746"
          rx="5" ry="5" x="0" y="0" 
          data-testid="lang-progress"
          width="7.18%"
      >
      </rect>
    </svg>
  
  </g><g transform="translate(0, 120)">
    <text data-testid="lang-name" x="2" y="15" class="lang-name">Rust</text>
    <text x="215" y="34" class="lang-name">4.60%</text>
    
    <svg width="205" x="0" y="25">
      <rect rx="5" ry="5" x="0" y="0" width="205" height="8" fill="#ddd"></rect>
      <rect
          height="8"
          fill="#dea584"
          rx="5" ry="5" x="0" y="0" 
          data-testid="lang-progress"
          width="4.6%"
      >
      </rect>
    </svg>
  
  </g><g transform="translate(0, 160)">
    <text data-testid="lang-name" x="2" y="15" class="lang-name">JavaScript</text>
    <text x="215" y="34" class="lang-name">3.33%</text>
    
    <svg width="205" x="0" y="25">
      <rect rx="5" ry="5" x="0" y="0" width="205" height="8" fill="#ddd"></rect>
      <rect
          height="8"
          fill="#f1e05a"
          rx="5" ry="5" x="0" y="0" 
          data-testid="lang-progress"
          width="3.33%"
      >
      </rect>
    </svg>
  
  </g><g transform="translate(0, 200)">
    <text data-testid="lang-name" x="2" y="15" class="lang-name">Move</text>
    <text x="215" y="34" class="lang-name">2.29%</text>
    
    <svg width="205" x="0" y="25">
      <rect rx="5" ry="5" x="0" y="0" width="205" height="8" fill="#ddd"></rect>
      <rect
          height="8"
          fill="#4a137a"
          rx="5" ry="5" x="0" y="0" 
          data-testid="lang-progress"
          width="2.29%"
      >
      </rect>
    </svg>
  
  </g><g transform="translate(0, 240)">
    <text data-testid="lang-name" x="2" y="15" class="lang-name">CSS</text>
    <text x="215" y="34" class="lang-name">1.96%</text>
    
    <svg width="205" x="0" y="25">
      <rect rx="5" ry="5" x="0" y="0" width="205" height="8" fill="#ddd"></rect>
      <rect
          height="8"
          fill="#663399"
          rx="5" ry="5" x="0" y="0" 
          data-testid="lang-progress"
          width="2%"
      >
      </rect>
    </svg>
  
  </g>
    </svg>
  
        </g>
      </svg>
    